<svg width="49" height="61" viewBox="0 0 49 61" fill="none" xmlns="http://www.w3.org/2000/svg">
<path d="M36.481 0H36.6676C39.8433 1.27708 43.3921 2.3651 45.5186 5.27955C47.6451 7.97998 47.3176 11.6578 47.0993 14.8862C46.2861 14.4974 45.3742 13.9444 44.4518 14.3404C43.3745 14.7578 43.3041 16.042 42.7936 16.9302C40.6495 18.1253 38.0337 16.2774 35.9389 17.6794C36.3613 18.0432 36.7909 18.4071 37.2204 18.771C38.4456 17.8042 39.7517 18.8637 41.0121 19.1455C41.9205 19.3453 42.8112 19.6735 43.4625 20.3798C42.5049 20.2442 41.5508 20.0873 40.6002 19.9053C40.6213 20.7222 40.6389 21.5392 40.6495 22.3561C40.1249 22.1634 39.463 22.2098 39.0406 21.8103C38.516 21.0219 38.2167 20.1087 37.8471 19.2383C36.8366 20.84 35.4847 22.1599 34.256 23.5832C35.4037 24.6391 36.7697 25.4524 38.3118 25.7343C37.2028 24.846 35.872 24.2538 34.9566 23.1337C35.622 22.3382 36.6007 22.3347 37.5443 22.3953C37.664 22.2562 37.9104 21.9815 38.0301 21.8424C40.6847 23.5939 43.8427 24.4929 46.2614 26.6118C47.3458 27.5928 48.0746 28.8984 48.5851 30.2576V30.7784C47.6767 30.6714 46.7156 30.6642 45.8918 30.204C44.5891 29.5405 43.7582 28.2706 42.5999 27.4144C41.8641 26.8544 40.9171 26.7581 40.051 26.544C40.2587 26.9222 40.4664 27.3003 40.6741 27.6784C41.2903 27.9852 42.5507 27.8818 42.269 28.902C41.6705 28.9412 41.0685 28.9377 40.4699 28.9626C39.4384 29.2873 38.3294 29.2016 37.3049 29.5263C35.96 30.0614 35.365 31.5132 34.6679 32.6833C32.2703 32.5085 29.8657 32.3194 27.4646 32.4372C25.6726 32.5049 23.8771 33.2719 22.7892 34.7594C20.2895 32.348 19.8072 28.4204 21.0289 25.2455C21.4936 23.5047 22.7998 22.2205 23.6271 20.6687C24.6587 19.8768 25.6726 19.0635 26.6795 18.2394C26.5246 17.105 26.2218 15.9814 25.4684 15.0895C26.4859 13.0063 29.0912 13.5806 30.9607 13.5057C31.8091 14.8149 32.2351 16.4558 33.4357 17.4939C33.8828 17.9505 34.4989 17.658 35.0165 17.5474C34.4074 16.6449 33.742 15.7816 33.1575 14.8612C32.3548 13.7982 33.9391 12.9527 34.4708 12.1893C33.6434 10.074 32.1013 8.33313 31.4113 6.15353C33.0836 4.08809 35.3896 2.51136 36.481 0Z" fill="#363736"/>
<path d="M6.01328 7.95504C8.61153 6.45322 11.8541 5.9324 14.6319 7.25229C17.8779 8.483 20.1769 12.1109 19.3495 15.6282C18.5327 15.8779 17.6068 15.9029 16.8745 16.356C15.8465 17.8685 15.3113 19.6913 14.1742 21.1325C12.523 21.7639 10.6535 21.7782 8.88966 21.7639C7.72432 18.425 5.54152 15.4106 5.27747 11.7827C5.1472 10.4557 5.53447 9.17148 6.01328 7.95504Z" fill="#363736"/>
<path d="M18.4729 19.0528C19.7122 16.9731 22.233 16.3096 24.4862 16.306C24.5425 17.815 24.1482 19.274 23.6271 20.6688C22.4407 21.8567 21.3281 23.1159 20.1417 24.3038C18.5151 25.9305 18.1772 28.4276 18.6172 30.6179C17.3322 31.2636 16.0366 31.8914 14.7551 32.5371C16.1915 34.8451 16.8604 37.6133 16.4943 40.3316C16.2056 43.0284 15.1212 45.5433 13.9066 47.9334C13.2518 49.0999 13.5968 51.0512 12.0829 51.5292C12.53 49.9489 13.0159 48.3543 13.03 46.6956C12.4526 47.4804 12.1146 48.415 11.5478 49.2069C11.0161 49.8847 10.995 50.9263 10.1465 51.3294C10.2733 50.4911 10.4564 49.6635 10.6465 48.8359C10.5127 48.3829 10.3789 47.9298 10.2522 47.4768C9.42832 47.4625 8.60097 47.4625 7.77713 47.4732C7.99542 46.2853 8.16089 45.0225 8.93191 44.0487C9.26637 43.4387 10.0304 42.925 9.8332 42.1437C9.2206 41.1948 7.97077 41.0771 7.02019 40.6491C6.75614 39.3006 6.54138 37.8809 5.69643 36.7572C3.92905 34.0996 0.897768 32.3159 0 29.0947V27.3396C0.415438 26.1624 1.0738 25.1029 1.77793 24.0862C2.86934 24.6249 3.72838 25.4953 4.52405 26.4014C4.23183 24.6748 2.75315 22.7449 3.91849 21.079C6.49561 19.7627 8.54464 23.4049 11.1464 22.4417C12.1216 24.9567 13.882 27.0257 15.0508 29.4371C16.4133 26.0482 16.5013 22.1778 18.4729 19.0528ZM9.58323 28.7165C9.20652 29.2802 10.4951 29.9651 10.6711 29.2802C10.5831 28.845 9.98811 28.4454 9.58323 28.7165ZM10.907 31.4812C10.4282 32.0555 11.7484 32.8581 11.9984 32.1233C12.023 31.606 11.34 31.2243 10.907 31.4812Z" fill="#363736"/>
<path d="M26.0106 35.662C28.7004 34.9557 31.4958 35.4694 34.2314 35.2874C35.2629 38.6728 34.9637 42.3399 33.8265 45.6539C33.5202 46.4779 33.0977 47.3805 32.1823 47.623C31.6331 49.0214 31.1261 50.4804 30.1896 51.6683C30.0031 51.7147 29.6369 51.8146 29.4503 51.861C30.2847 50.3948 31.0592 48.893 31.7176 47.3341C30.8867 46.8418 29.9326 47.0951 29.1334 47.5053C28.9328 48.7646 28.4399 49.9703 28.4927 51.2652C27.2076 51.1618 27.866 49.5636 28.0561 48.7503C28.3237 48.2223 27.6689 47.862 27.4576 47.4482C26.764 47.4554 26.074 47.4518 25.3839 47.4447C24.9333 48.4613 24.6833 49.5494 24.5672 50.6552C24.4158 50.7658 24.1165 50.9834 23.9651 51.094C23.951 49.5636 23.9968 47.8549 25.0882 46.667C25.1129 44.7906 26.3873 43.403 27.3027 41.9011C28.0209 40.6776 27.0739 39.4397 26.4789 38.4052C25.9226 37.599 26.0388 36.5895 26.0106 35.662Z" fill="#363736"/>
<path d="M6.29509 53.9763C9.1081 55.4211 12.2415 54.1511 15.1953 54.0762C15.8185 55.3461 15.3784 56.7053 14.8045 57.8932C15.1601 58.2891 15.5298 58.6673 15.9241 59.0276C17.9309 58.785 19.7546 57.8004 21.7085 57.3153C23.159 56.9443 23.3527 55.3354 23.2295 54.0655C24.5497 54.1404 25.8277 54.5114 27.1339 54.6791C28.4893 54.5899 29.8553 53.7373 31.2002 54.3759C33.9463 55.5245 35.7278 58.2107 38.5302 59.2773C32.0417 62.0348 24.9475 59.5876 18.2055 60.4616C18.2196 60.3368 18.2442 60.087 18.2583 59.9586C17.3183 59.9836 16.3783 60.005 15.4418 60.0478C13.3822 60.7399 11.1747 60.6756 9.04825 61.0003H6.55914C5.6156 60.6899 4.89387 59.9979 4.26367 59.2523C4.98189 58.4069 5.8022 57.6328 6.37959 56.6767C6.86544 55.8277 6.4676 54.8539 6.29509 53.9763Z" fill="#363736"/>
</svg>
